<?xml version="1.0" encoding="utf-8"?>
<!DOCTYPE svg PUBLIC "-//W3C//DTD SVG 20010904//EN" "http://www.w3.org/TR/2001/REC-SVG-20010904/DTD/svg10.dtd">
<svg version="1.0" xmlns="http://www.w3.org/2000/svg" width="130pt" height="130pt" viewBox="0 0 130 130" style="" preserveAspectRatio="xMidYMid meet">
<g fill="#2B2BF4FF" stroke="#2B2BF4FF">
<path d="M 36.664 37.250 C 35.171 46.738 33.961 55.288 33.975 56.250 C 33.998 57.857 35.628 58.000 53.981 58.000 C 73.876 58.000 73.964 57.990 74.498 55.750 C 75.069 53.354 79.993 22.016 79.997 20.750 C 79.999 20.338 70.860 20.000 59.690 20.000 L 39.379 20.000 36.664 37.250 M 74.400 24.838 C 74.950 25.728 71.297 50.710 70.406 52.152 C 70.118 52.618 62.934 53.000 54.441 53.000 C 40.402 53.000 39.000 52.841 39.000 51.250 C 39.000 50.288 39.891 44.100 40.980 37.500 C 42.068 30.900 42.968 25.163 42.979 24.750 C 43.008 23.713 73.758 23.800 74.400 24.838 "/></g>
<g fill="#2B2BF4FF" stroke="#2B2BF4FF">
<path d="M 37.725 5.942 C 37.446 7.010 37.469 8.135 37.775 8.442 C 38.082 8.749 49.681 9.000 63.551 9.000 L 88.769 9.000 95.931 16.250 L 103.092 23.500 102.484 28.500 C 102.077 31.844 101.068 34.346 99.438 36.055 C 96.724 38.899 96.296 42.153 98.364 44.221 C 99.517 45.374 99.503 46.832 98.275 53.610 L 96.822 61.635 86.911 69.471 C 81.460 73.780 77.000 77.889 77.000 78.602 C 77.000 79.314 78.085 83.407 79.411 87.698 C 86.411 110.352 89.971 123.238 89.457 124.070 C 88.328 125.897 79.068 125.110 76.130 122.938 C 71.656 119.630 66.000 122.141 66.000 127.434 C 66.000 129.878 68.822 129.271 69.180 126.750 C 69.390 125.273 70.187 124.500 71.500 124.500 C 72.931 124.500 73.477 125.140 73.421 126.750 C 73.343 128.956 73.565 129.000 84.671 129.000 C 92.035 129.000 96.000 128.626 96.000 127.932 C 96.000 126.966 94.013 120.077 84.945 89.601 C 83.325 84.156 82.000 79.392 82.000 79.015 C 82.000 78.637 86.247 75.029 91.438 70.996 L 100.876 63.663 101.946 57.082 C 102.535 53.462 103.151 49.496 103.317 48.268 C 103.482 47.040 104.604 44.986 105.809 43.704 C 108.054 41.313 108.706 37.144 107.098 35.450 C 106.563 34.885 106.591 31.963 107.168 28.247 L 108.139 21.995 99.888 12.997 L 91.637 4.000 64.935 4.000 C 39.340 4.000 38.212 4.080 37.725 5.942 M 104.803 40.367 C 104.437 42.918 101.238 43.783 100.385 41.561 C 99.594 39.500 101.722 36.956 103.626 37.687 C 104.445 38.001 104.971 39.198 104.803 40.367 "/></g>
<g fill="#2B2BF4FF" stroke="#2B2BF4FF">
<path d="M 17.667 1.667 C 16.448 2.885 16.977 5.346 18.906 7.436 C 20.781 9.467 20.775 9.721 18.499 23.500 C 12.788 58.080 2.000 124.796 2.000 125.536 C 2.000 125.791 8.926 126.000 17.392 126.000 C 34.911 126.000 33.209 126.991 34.568 116.000 C 34.942 112.975 36.093 109.097 37.124 107.382 C 39.491 103.448 39.474 102.474 37.000 100.000 C 34.361 97.361 32.432 97.477 29.455 100.455 C 26.487 103.422 26.314 106.432 28.979 108.714 C 30.583 110.087 30.841 111.177 30.342 114.454 C 29.203 121.931 29.090 122.000 17.965 122.000 L 8.000 122.000 8.031 119.250 C 8.047 117.738 9.851 105.475 12.038 92.000 C 14.225 78.525 18.077 54.450 20.598 38.500 C 23.838 17.999 25.740 8.586 27.090 6.382 C 29.520 2.416 29.504 1.000 27.031 1.000 C 25.797 1.000 25.255 1.500 25.577 2.340 C 25.860 3.077 25.396 4.257 24.546 4.962 C 22.648 6.537 19.803 4.678 20.666 2.427 C 21.221 0.981 18.932 0.401 17.667 1.667 M 35.000 104.031 C 35.000 106.390 32.355 107.755 30.800 106.200 C 29.245 104.645 30.610 102.000 32.969 102.000 C 34.344 102.000 35.000 102.656 35.000 104.031 "/></g>
<g fill="#2B2BF4FF" stroke="#2B2BF4FF">
<path d="M 38.000 71.879 C 38.000 72.406 37.727 73.548 37.393 74.418 C 36.873 75.773 37.853 76.000 44.231 76.000 L 51.675 76.000 54.800 87.250 C 56.518 93.438 58.215 99.738 58.570 101.250 C 59.226 104.039 60.482 104.616 62.756 103.172 C 63.723 102.558 63.014 98.820 59.677 86.937 L 55.342 71.500 46.671 71.211 C 41.615 71.043 38.000 71.321 38.000 71.879 "/></g>
</svg>
